<svg viewBox="0 0 100 100" xmlns="http://www.w3.org/2000/svg" fill="currentColor">
  <g transform="translate(10, 18) scale(1.1)">
    <path d="M19.31 64.627c2.974.008 5.948.076 8.921.15l8.921.295c5.948.224 11.896.477 17.843.591 5.948.129 11.895.182 17.842.277l3.25.052-1.602-2.902c-2.942-5.33-6-10.636-9.105-15.907-3.14-5.237-6.3-10.461-9.493-15.567C49.516 21.378 43.167 11.48 37.204 2l-9.22 14.494c-3.131 4.973-6.312 10.038-9.46 15.213-3.142 5.172-6.308 10.395-9.253 15.781C6.317 52.864 3.53 58.288.72 63.606l-.718 1.36 1.467-.062a347 347 0 0 1 17.842-.277m-7.778-14.963c3.012-4.921 5.802-10.007 8.615-15.143 2.808-5.134 5.583-10.376 8.408-15.712l8.649-16.431 16.95 32.233c2.747 5.203 5.525 10.287 8.325 15.359a627 627 0 0 0 7.056 12.214c-4.846.068-9.693.125-14.54.23-5.948.114-11.895.367-17.843.59l-8.92.296c-2.975.075-5.949.143-8.922.15a349 349 0 0 1-16.305-.223c2.885-4.558 5.777-9.041 8.527-13.563" />
  </g>
</svg>
